HIERARCHY
ROOT Hips
{
	OFFSET 0.000000 0.000000 0.000000
	CHANNELS 6 Xposition Yposition Zposition Xrotation Yrotation Zrotation
	JOINT LeftUpLeg_virtual
	{
		OFFSET 0.000000 0.000000 0.000000
		CHANNELS 3 Xrotation Yrotation Zrotation
		JOINT LeftUpLeg
		{
			OFFSET 13.026900 -6.336304 -1.092800
			CHANNELS 3 Xrotation Yrotation Zrotation
			JOINT LeftLeg
			{
				OFFSET 0.524474 -46.096886 9.782700
				CHANNELS 3 Xrotation Yrotation Zrotation
				JOINT LeftFoot
				{
					OFFSET -0.524474 -53.427422 -12.948200
					CHANNELS 3 Xrotation Yrotation Zrotation
					JOINT LeftToeBase
					{
						OFFSET 0.192200 -14.009700 16.364100
						CHANNELS 3 Xrotation Yrotation Zrotation
						JOINT LeftToe_End
						{
							OFFSET -1.784700 -0.561700 9.474800
							CHANNELS 3 Xrotation Yrotation Zrotation
							End Site
							{
								OFFSET 0 0 0
							}
						}
					}
				}
			}
		}
	}
	JOINT RightUpLeg_virtual
	{
		OFFSET 0.000000 0.000000 0.000000
		CHANNELS 3 Xrotation Yrotation Zrotation
		JOINT RightUpLeg
		{
			OFFSET -12.883000 -6.336304 -1.092800
			CHANNELS 3 Xrotation Yrotation Zrotation
			JOINT RightLeg
			{
				OFFSET -0.524587 -46.096825 9.782800
				CHANNELS 3 Xrotation Yrotation Zrotation
				JOINT RightFoot
				{
					OFFSET 0.524587 -53.427383 -12.948300
					CHANNELS 3 Xrotation Yrotation Zrotation
					JOINT RightToeBase
					{
						OFFSET -0.192200 -14.009700 16.364100
						CHANNELS 3 Xrotation Yrotation Zrotation
						JOINT RightToe_End
						{
							OFFSET 1.784700 -0.561700 9.474800
							CHANNELS 3 Xrotation Yrotation Zrotation
							End Site
							{
								OFFSET 0 0 0
							}
						}
					}
				}
			}
		}
	}
	JOINT Spine_virtual
	{
		OFFSET 0.000000 0.000000 0.000000
		CHANNELS 3 Xrotation Yrotation Zrotation
		JOINT Spine
		{
			OFFSET 0.072000 7.257294 -0.789700
			CHANNELS 3 Xrotation Yrotation Zrotation
			JOINT Spine1
			{
				OFFSET 0.000000 12.508769 -0.658067
				CHANNELS 3 Xrotation Yrotation Zrotation
				JOINT Spine1_split
				{
					OFFSET 0.000000 12.508769 -0.658067
					CHANNELS 3 Xrotation Yrotation Zrotation
					JOINT Spine2
					{
						OFFSET 0.000000 12.508769 -0.658067
						CHANNELS 3 Xrotation Yrotation Zrotation
						JOINT Neck_virtual
						{
							OFFSET 0.000000 0.000000 0.000000
							CHANNELS 3 Xrotation Yrotation Zrotation
							JOINT Neck
							{
								OFFSET 0.000000 14.033295 7.520400
								CHANNELS 3 Xrotation Yrotation Zrotation
								JOINT Head
								{
									OFFSET 0.000000 8.198502 5.703100
									CHANNELS 3 Xrotation Yrotation Zrotation
									JOINT HeadTop_End
									{
										OFFSET 0.000000 17.760803 13.332701
										CHANNELS 3 Xrotation Yrotation Zrotation
										End Site
										{
											OFFSET 0 0 0
										}
									}
								}
							}
						}
						JOINT LeftShoulder_virtual
						{
							OFFSET 0.000000 0.000000 0.000000
							CHANNELS 3 Xrotation Yrotation Zrotation
							JOINT LeftShoulder
							{
								OFFSET 6.292450 5.785301 -0.669000
								CHANNELS 3 Xrotation Yrotation Zrotation
								JOINT LeftShoulder_split
								{
									OFFSET 6.292450 5.785301 -0.669000
									CHANNELS 3 Xrotation Yrotation Zrotation
									JOINT LeftArm
									{
										OFFSET 13.907140 -6.093903 1.965100
										CHANNELS 3 Xrotation Yrotation Zrotation
										JOINT LeftForeArm
										{
											OFFSET 34.140198 0.000000 0.000000
											CHANNELS 3 Xrotation Yrotation Zrotation
											JOINT LeftHand
											{
												OFFSET 40.960209 0.000000 0.000000
												CHANNELS 3 Xrotation Yrotation Zrotation
												End Site
												{
													OFFSET 0 0 0
												}
											}
										}
									}
								}
							}
						}
						JOINT RightShoulder_virtual
						{
							OFFSET 0.000000 0.000000 0.000000
							CHANNELS 3 Xrotation Yrotation Zrotation
							JOINT RightShoulder
							{
								OFFSET -6.292450 5.785301 -0.669000
								CHANNELS 3 Xrotation Yrotation Zrotation
								JOINT RightShoulder_split
								{
									OFFSET -6.292450 5.785301 -0.669000
									CHANNELS 3 Xrotation Yrotation Zrotation
									JOINT RightArm
									{
										OFFSET -13.907140 -6.093903 1.965100
										CHANNELS 3 Xrotation Yrotation Zrotation
										JOINT RightForeArm
										{
											OFFSET -34.140198 0.000000 0.000000
											CHANNELS 3 Xrotation Yrotation Zrotation
											JOINT RightHand
											{
												OFFSET -40.960209 0.000000 0.000000
												CHANNELS 3 Xrotation Yrotation Zrotation
												End Site
												{
													OFFSET 0 0 0
												}
											}
										}
									}
								}
							}
						}
					}
				}
			}
		}
	}
}
MOTION
Frames: 9
Frame Time: 0.03333333
13.907214 96.517212 2.894272 0.000000 0.000000 0.000000 9.090080 -1.976373 -10.139723 -54.785429 -8.279619 26.530705 48.835320 -3.186186 -3.577382 1.422815 2.637455 -13.003035 -1.478632 -0.116979 0.238062 0.000000 0.000000 0.000000 9.759606 -1.352119 -10.808954 -37.777725 -22.436731 -0.352308 47.817495 5.724927 -1.835840 -16.758402 -15.719151 -7.739570 -0.177699 -0.162424 -0.764962 0.000000 0.000000 0.000000 8.119905 0.066647 -11.233945 7.804213 -3.438871 -7.462715 5.417973 -1.736604 -6.244631 1.280575 0.921498 0.548460 0.000000 0.000000 0.000000 7.803762 -1.778724 -6.341052 -6.919728 0.529261 -6.869456 -29.432207 -12.758696 13.076408 0.000000 0.000000 0.000000 6.734210 -1.513190 -6.057349 0.894922 -5.386621 -7.819172 -0.707139 -4.090304 0.531941 -27.119976 7.930438 -19.359060 2.607804 -59.277456 2.399970 0.000000 0.000000 0.000000 6.489706 -1.869565 -6.054228 1.855699 -1.832295 4.258447 6.327288 3.854785 -3.029291 24.853819 -8.702760 81.201551 8.583500 80.260959 -7.634517 0.000000 0.000000 0.000000 
14.150710 95.133240 1.870895 0.000000 0.000000 0.000000 8.596380 -3.405513 -9.412871 -55.311859 -8.659251 26.378314 50.494096 -2.397597 -3.829983 1.175630 3.086666 -13.216834 -1.128558 -0.067860 0.286929 0.000000 0.000000 0.000000 9.156854 -2.533296 -10.085175 -39.696575 -20.753757 -0.116851 49.839160 4.796143 -1.802804 -16.992365 -16.359876 -8.069978 -0.267252 -0.150092 -0.732597 0.000000 0.000000 0.000000 7.664743 -1.223425 -10.669718 8.675395 -3.086974 -6.983344 5.980418 -1.478170 -5.950262 1.349057 0.913809 0.619456 0.000000 0.000000 0.000000 8.089570 -1.552750 -6.067079 -5.956721 0.397305 -6.691669 -28.357277 -12.208900 12.764053 0.000000 0.000000 0.000000 7.145996 -1.348621 -5.942648 0.937564 -5.629474 -8.743217 -0.555859 -4.108643 0.705702 -24.243867 12.234239 -22.856484 2.143389 -56.898064 2.063900 0.000000 0.000000 0.000000 7.062368 -1.602666 -5.760065 1.844383 -0.685309 5.067907 5.955824 3.510510 -3.025332 21.855709 -5.638342 79.616612 6.139228 76.307638 -5.310286 0.000000 0.000000 0.000000 
14.193742 94.251831 1.015923 0.000000 0.000000 0.000000 8.176644 -4.564522 -8.808285 -55.476449 -8.892012 26.245393 51.441211 -1.479249 -4.115084 0.948840 3.503379 -13.353953 -0.902224 -0.013584 0.240013 0.000000 0.000000 0.000000 8.521297 -3.625198 -9.447581 -41.218648 -19.309037 0.122975 51.260867 3.906544 -1.680677 -16.979493 -16.793364 -8.229336 -0.014765 -0.124675 -0.702948 0.000000 0.000000 0.000000 7.218748 -2.577088 -10.155846 9.367687 -2.817113 -6.623594 6.391983 -1.268080 -5.696427 1.400079 0.972768 0.521044 0.000000 0.000000 0.000000 8.229499 -1.373096 -5.809163 -5.170795 0.382732 -6.560217 -26.759617 -11.552485 12.609386 0.000000 0.000000 0.000000 7.390425 -1.206874 -5.850009 0.975184 -5.810553 -9.605435 -0.636089 -3.797703 0.911894 -21.331591 15.263354 -26.802560 1.579176 -53.528469 1.640121 0.000000 0.000000 0.000000 7.510765 -1.373404 -5.518181 1.771092 0.362489 5.873686 5.562900 3.306960 -2.928290 18.832686 -2.774351 77.815259 4.792998 72.611113 -4.108561 0.000000 0.000000 0.000000 
14.065455 93.891190 0.340225 0.000000 0.000000 0.000000 7.732426 -5.466381 -8.343469 -55.318003 -9.069454 26.188800 51.827158 -0.608402 -4.379141 0.954742 3.752784 -13.515480 -0.791282 0.041246 0.105981 0.000000 0.000000 0.000000 7.955436 -4.599928 -8.949122 -42.230814 -18.092032 0.450421 51.945901 3.168858 -1.562088 -16.527188 -16.981293 -8.021046 0.180862 -0.085952 -0.707142 0.000000 0.000000 0.000000 6.757584 -3.977813 -9.690234 9.796812 -2.611084 -6.388032 6.598741 -1.113925 -5.498127 1.353551 1.141610 0.324188 0.000000 0.000000 0.000000 8.166451 -1.231876 -5.601248 -4.532746 0.418435 -6.461423 -24.655538 -10.917992 12.651207 0.000000 0.000000 0.000000 7.430925 -1.092398 -5.784477 1.003457 -5.854663 -10.391236 -0.833700 -3.398910 1.055198 -18.530723 16.925649 -30.809628 1.077006 -49.695261 1.257595 0.000000 0.000000 0.000000 7.763393 -1.177972 -5.354279 1.648782 1.250854 6.697693 5.349436 3.305275 -2.756080 15.836207 -0.144454 76.026993 3.941384 69.221665 -3.397651 0.000000 0.000000 0.000000 
13.814333 94.043541 -0.185604 0.000000 0.000000 0.000000 7.183096 -6.232802 -8.038710 -54.694147 -9.220606 26.222619 51.768753 0.137573 -4.594020 1.219566 3.837475 -13.538488 -0.720199 0.082795 -0.061126 0.000000 0.000000 0.000000 7.434936 -5.538800 -8.568464 -42.591823 -17.015097 0.971297 51.698863 2.608046 -1.501862 -15.622219 -16.963845 -7.576766 0.144957 -0.052580 -0.742209 0.000000 0.000000 0.000000 6.263052 -5.444858 -9.289961 9.895423 -2.432476 -6.253498 6.591302 -1.015444 -5.361146 1.314652 1.470282 0.134131 0.000000 0.000000 0.000000 7.874776 -1.121658 -5.457439 -3.941015 0.441541 -6.349789 -21.956710 -10.386323 12.893284 0.000000 0.000000 0.000000 7.282661 -1.005657 -5.742999 1.023296 -5.752082 -11.134504 -1.290553 -2.994504 1.003361 -15.975538 17.315662 -34.491547 0.776620 -46.036465 1.011486 0.000000 0.000000 0.000000 7.764845 -1.017629 -5.277478 1.518379 1.947410 7.522869 5.288131 3.422463 -2.620523 12.987397 2.319333 74.401968 3.358695 66.241524 -2.912859 0.000000 0.000000 0.000000 
13.419605 94.692451 -0.494843 0.000000 0.000000 0.000000 6.482876 -6.838901 -7.864254 -53.377013 -9.232876 26.368068 51.137821 0.835439 -4.771942 1.519603 3.905662 -13.266999 -0.575474 0.115608 -0.216186 0.000000 0.000000 0.000000 6.861539 -6.393215 -8.302471 -42.260238 -16.053595 1.678947 50.509286 2.150879 -1.498384 -14.397016 -16.801893 -7.108320 0.006698 -0.047009 -0.787582 0.000000 0.000000 0.000000 5.624835 -6.905542 -8.954222 9.666394 -2.272594 -6.175939 6.374722 -0.982011 -5.283357 1.207071 1.804471 0.017220 0.000000 0.000000 0.000000 7.372232 -1.052126 -5.379136 -3.306192 0.417051 -6.178979 -18.574476 -9.956804 13.337874 0.000000 0.000000 0.000000 6.960347 -0.968942 -5.717839 1.032867 -5.520011 -11.829514 -1.912254 -2.686396 0.742790 -13.907970 16.602233 -37.551188 0.747246 -43.009599 0.940464 0.000000 0.000000 0.000000 7.512003 -0.908818 -5.281124 1.398121 2.411726 8.326611 5.278522 3.464020 -2.498036 10.496923 4.574373 72.916907 2.927556 63.988709 -2.539063 0.000000 0.000000 0.000000 
12.970825 95.752296 -0.764336 0.000000 0.000000 0.000000 5.612261 -7.467327 -7.787368 -51.299010 -8.966256 26.643467 49.880533 1.543106 -4.906128 1.664586 3.966710 -12.693569 -0.485677 0.134607 -0.296771 0.000000 0.000000 0.000000 6.132761 -7.182560 -8.150536 -41.279782 -15.207500 2.552542 48.575807 1.642825 -1.515988 -12.902242 -16.584275 -6.736159 -0.237849 -0.076936 -0.830031 0.000000 0.000000 0.000000 4.764649 -8.256289 -8.696037 9.152580 -2.118870 -6.104736 6.000199 -1.019533 -5.246854 1.093334 2.109692 0.010771 0.000000 0.000000 0.000000 6.699250 -1.026480 -5.352489 -2.563639 0.340379 -5.924622 -14.538995 -9.608490 13.960670 0.000000 0.000000 0.000000 6.480834 -0.989958 -5.700297 1.021015 -5.273094 -12.445093 -2.607467 -2.519376 0.284939 -12.679126 14.908558 -39.758377 0.965493 -40.709403 1.010136 0.000000 0.000000 0.000000 7.053536 -0.870578 -5.333623 1.300833 2.651383 9.113261 5.251507 3.412123 -2.436800 8.553776 6.627533 71.510243 2.605951 62.659582 -2.254019 0.000000 0.000000 0.000000 
12.496260 97.123390 -1.011013 0.000000 0.000000 0.000000 4.614057 -8.187898 -7.776814 -48.566197 -8.370266 26.981727 48.197691 2.225013 -4.954183 1.561102 4.036157 -11.817575 -0.645400 0.138751 -0.271155 0.000000 0.000000 0.000000 5.174024 -7.888033 -8.082932 -39.723721 -14.485844 3.524920 46.186917 1.037206 -1.523745 -11.164230 -16.362306 -6.420306 -0.538911 -0.143034 -0.889316 0.000000 0.000000 0.000000 3.660181 -9.438289 -8.535605 8.453613 -1.979844 -5.994340 5.528344 -1.127805 -5.232826 1.056160 2.401006 -0.019196 0.000000 0.000000 0.000000 5.937532 -1.056113 -5.348958 -1.734863 0.206775 -5.551541 -9.996232 -9.331532 14.694915 0.000000 0.000000 0.000000 5.909144 -1.070337 -5.674418 0.997128 -5.113029 -12.946691 -3.275874 -2.354878 -0.322761 -12.494510 12.300663 -41.058688 1.300657 -38.802639 1.148080 0.000000 0.000000 0.000000 6.478927 -0.914708 -5.399876 1.228686 2.704323 9.846289 5.028875 3.342429 -2.419232 7.342944 8.483337 70.028345 2.379364 62.349423 -2.028201 0.000000 0.000000 0.000000 
12.005312 98.625526 -1.307533 0.000000 0.000000 0.000000 3.512668 -9.017591 -7.774926 -45.569940 -7.457227 27.290620 46.525497 2.784621 -4.888009 1.221854 4.092144 -10.711928 -0.935449 0.124127 -0.206931 0.000000 0.000000 0.000000 3.996122 -8.478353 -8.095495 -37.749154 -13.938204 4.501265 43.647405 0.345540 -1.530917 -9.294433 -16.067110 -6.056879 -0.834971 -0.221917 -0.962539 0.000000 0.000000 0.000000 2.293690 -10.381013 -8.481463 7.676874 -1.855168 -5.808034 5.030643 -1.285448 -5.212765 1.015288 2.576857 0.001185 0.000000 0.000000 0.000000 5.152629 -1.128311 -5.342439 -0.918773 0.034198 -5.052001 -5.320457 -9.039778 15.411705 0.000000 0.000000 0.000000 5.305107 -1.187282 -5.617024 0.950677 -5.158151 -13.235858 -3.556083 -2.206296 -0.808270 -13.371439 8.781432 -41.532505 1.602968 -36.766533 1.270289 0.000000 0.000000 0.000000 5.883533 -1.016676 -5.446596 1.169463 2.649671 10.528083 4.671438 3.405629 -2.310776 6.805502 10.108055 68.293463 2.201282 62.676138 -1.828850 0.000000 0.000000 0.000000 
